<?xml version="1.0" encoding="utf-8"?>
<!-- Generator: Adobe Illustrator 22.0.1, SVG Export Plug-In . SVG Version: 6.00 Build 0)  -->
<svg version="1.1" id="Layer_1" xmlns="http://www.w3.org/2000/svg" xmlns:xlink="http://www.w3.org/1999/xlink" x="0px" y="0px"
	 viewBox="0 0 60 60" style="enable-background:new 0 0 60 60;" xml:space="preserve">
<style type="text/css">
	.st0{fill:#083163;}
	.st1{fill:#FFFFFF;}
</style>
<path class="st0" d="M20,19.4h20c1.2,0,2.1,1,2.1,2.1v13.1c0,1.2-1,2.1-2.1,2.1h-2.3v3.9l-3.9-3.9H20c-1.2,0-2.1-1-2.1-2.1V21.5
	C17.9,20.4,18.8,19.4,20,19.4z"/>
<path class="st1" d="M38.4,42l-5-5H20c-1.6,0-2.9-1.3-2.9-2.9V20.9c0-1.6,1.3-2.9,2.9-2.9h20c1.6,0,2.9,1.3,2.9,2.9V34
	c0,1.6-1.3,2.9-2.9,2.9h-1.6V42z M20,19.6c-0.8,0-1.4,0.6-1.4,1.4v13.1c0,0.8,0.6,1.4,1.4,1.4h14.1l2.9,2.9v-2.9h3.1
	c0.8,0,1.4-0.6,1.4-1.4V20.9c0-0.8-0.6-1.4-1.4-1.4H20V19.6z"/>
</svg>
