<svg width="80" height="50" xmlns="http://www.w3.org/2000/svg"><path d="M79.805 37.974h.137v11.601h-2.718V37.974h2.58zm-7.945 2.512H67.5a.581.581 0 0 0-.578.59v2.399h4.938v-2.989zm-5.318-2.512h8.034v11.601H71.86v-3.588h-4.938v3.588h-2.716v-9.228c0-.724.214-1.307.63-1.732.418-.426.991-.641 1.706-.641zm-7.455 3.114c0-.348-.24-.602-.597-.602h-4.339v6.577h4.356c.353 0 .58-.287.58-.6v-5.375zm.382-3.114c.713 0 1.287.215 1.706.64.418.424.632 1.007.632 1.733v6.857c0 .725-.214 1.307-.632 1.732-.417.424-.991.64-1.706.64h-8.035V37.973h8.035zm-12.891 0c.713 0 1.287.215 1.707.64.417.424.627 1.007.627 1.733v9.228h-2.716V41.07a.57.57 0 0 0-.575-.583h-4.363v9.09H38.54V37.973h8.038zm-13.275 0h2.718v9.23c0 .725-.212 1.307-.629 1.732-.419.424-.993.64-1.709.64h-8.032V37.973h2.716v9.089h4.36a.568.568 0 0 0 .576-.585v-8.504zm-11.956 0h3.207l-4.692 7.583v4.018h-2.718v-4.018l-4.696-7.583h3.21l2.845 4.593 2.844-4.593zm-12.692 0h2.719v11.601h-2.72V44.91H3.719v4.666H1V37.974h2.718v4.42h4.937v-4.42zM29.28 3.817C19.34 5.867 12.387 10.548 12.387 16c0 3.019 2.133 5.801 5.726 8.032.3.183.498.22.64.21.26-.017.407-.176.514-.369.068-.124.157-.311.247-.501 1.17-2.738 5.294-12.228 10.707-18.658.13-.154.2-.255.266-.37.122-.213.096-.384.002-.486-.15-.164-.572-.164-1.208-.041zm5.546 4.102c-3.042 7.134 2.721 6.247 4.277 5.915 2.646-.567 5.178-1.536 7.2-2.317 5.77-2.223 8.83-4.454 9.847-5.313.122-.102.213-.183.28-.247.142-.143.248-.296.248-.5 0-.235-.206-.424-.615-.56a2.882 2.882 0 0 1-.168-.063c-4.405-1.352-9.66-2.14-15.31-2.14-.047 0-.154-.005-.307 0-.677.02-1.43.166-2.043.473-2.018 1.01-2.9 3.559-3.409 4.752zm26.904.203c-.071.122-.16.308-.248.499-1.17 2.735-5.295 12.225-10.709 18.658-.13.154-.2.255-.264.366-.123.216-.096.387-.001.49.15.163.567.164 1.208.04 9.938-2.046 16.892-6.727 16.892-12.178 0-3.022-2.135-5.805-5.726-8.035-.3-.184-.494-.22-.641-.21-.258.016-.407.177-.51.37zm-15.47 15.93c3.042-7.13-2.72-6.247-4.275-5.915-2.645.565-5.176 1.537-7.2 2.316-5.768 2.22-8.83 4.456-9.847 5.314-.12.102-.216.183-.276.246-.147.143-.253.297-.253.502 0 .233.208.42.617.558.032.01.13.052.164.065 4.409 1.35 9.665 2.139 15.314 2.139.044 0 .153.004.302 0 .68-.02 1.438-.168 2.043-.473 2.023-1.013 2.9-3.562 3.411-4.753zM40.5 31.8c-16.904 0-30.612-7.073-30.612-15.797C9.887 7.27 23.596.2 40.5.2c16.909 0 30.613 7.071 30.613 15.803 0 8.724-13.704 15.797-30.613 15.797z" fill="#FFF"/></svg>