<svg height="47" viewBox="0 0 80 47" width="80" xmlns="http://www.w3.org/2000/svg"><defs><style>.cls-1{fill:#fff;}.cls-2{fill:#e63312;}</style></defs><title>n-footer</title><path d="M61.466,3.664h9.71a2.64,2.64,0,0,1-.115.311Q70.481,5.24,69.893,6.5c-.146.311-.292.637-.463,1.013H79.442l-13.8,29.389H65.5c-4.442,0-8.881,0-13.323-.044a40.847,40.847,0,0,1-7.791-.783,18,18,0,0,1-7.374-3.047c-1.553-1.174-3.029-2.485-4.507-3.774a43.861,43.861,0,0,0-4.989-3.945,8.7,8.7,0,0,0-4.162-1.491.4.4,0,0,0-.472.264c-1.864,4.131-3.765,8.257-5.638,12.388a.538.538,0,0,1-.584.37H.722V36.79c.034-.059.075-.115.1-.177l8.648-18.34q2.431-5.16,4.864-10.322c.081-.168.14-.311.379-.311a33.1,33.1,0,0,1,6.638.146,20.486,20.486,0,0,1,10.913,5.06,42.1,42.1,0,0,1,4.643,5.117,17.794,17.794,0,0,0,3.228,3.323,4.852,4.852,0,0,0,.485.311c.074-.152.133-.261.186-.376q3.162-6.756,6.318-13.512a.4.4,0,0,1,.432-.283h2.858a.429.429,0,0,0,.463-.311c.475-1.043.972-2.075,1.45-3.106a.455.455,0,0,1,.482-.311h8.262A3.68,3.68,0,0,0,61.466,3.664Zm-45.1,31.684q1.784-3.873,3.579-7.737c.91-1.967,1.826-3.927,2.73-5.9.2-.441.41-.236,1.814.043a7.429,7.429,0,0,1,1.454.438,15.869,15.869,0,0,1,4.377,2.979c2,1.811,3.973,3.644,5.958,5.467a19.092,19.092,0,0,0,9.207,4.66A46.2,46.2,0,0,0,54,36.035a.622.622,0,0,0,.572-.354q6.861-14.6,13.739-29.168l1.019-2.175c-.1,0-.168-.018-.23-.018H53.119a.4.4,0,0,0-.366.236c-.4.86-.8,1.718-1.206,2.578-.037.081-.059.168-.1.295h1.7c-.049.127-.081.211-.118.292-1.662,3.585-3.317,7.176-4.995,10.754a23.188,23.188,0,0,1-1.426,2.74,3.794,3.794,0,0,1-3.78,1.9,6.029,6.029,0,0,1-2.8-1.159,14.859,14.859,0,0,1-2.972-2.848A59.219,59.219,0,0,0,32.518,13.9,19.962,19.962,0,0,0,21.289,8.4a30.66,30.66,0,0,0-5.973-.189.582.582,0,0,0-.594.376Q8.453,21.905,2.17,35.237c-.056.118-.106.242-.168.385" transform="translate(-0.722 -3.664)"/><path class="cls-1" d="M15.959,35.631a.384.384,0,0,0,.406-.273q1.784-3.874,3.579-7.738c.91-1.966,1.826-3.926,2.73-5.9a.353.353,0,0,1,.435-.248h0a9.836,9.836,0,0,1,2.821.72,15.816,15.816,0,0,1,4.389,2.985c2,1.811,3.973,3.644,5.958,5.467a19.092,19.092,0,0,0,9.207,4.66,46.357,46.357,0,0,0,8.52.739.519.519,0,0,0,.566-.354q6.861-14.6,13.739-29.168l1.019-2.174c-.1,0-.168-.019-.23-.019H53.119a.339.339,0,0,0-.363.227c-.4.863-.808,1.724-1.209,2.584-.037.081-.059.168-.1.3h1.7c-.049.128-.081.211-.118.292-1.662,3.585-3.317,7.176-4.995,10.754a23.188,23.188,0,0,1-1.426,2.74,3.794,3.794,0,0,1-3.78,1.9,6.029,6.029,0,0,1-2.8-1.159,14.832,14.832,0,0,1-2.972-2.848,59.364,59.364,0,0,0-4.545-5.209A19.966,19.966,0,0,0,21.289,8.4a30.66,30.66,0,0,0-5.973-.189.582.582,0,0,0-.594.376Q8.453,21.905,2.17,35.237c-.056.118-.106.242-.168.385a1.333,1.333,0,0,1,.252.015C2.53,35.712,15.959,35.631,15.959,35.631Z" transform="translate(-0.722 -3.664)"/><path class="cls-2" d="M47.689,7.994h4.557s-5.141,11.242-5.613,12.09c-2.292,4.125-5.364,1.8-5.364,1.8Z" transform="translate(-0.722 -3.664)"/></svg>